# xmcd CD database file
#
# Track frame offsets:
#	150
#	15107
#	26212
#	39905
#	53387
#	70597
#	84740
#	102757
#	118430
#	130065
#	140057
#	154140
#	166732
#	180457
#	199427
#	217292
#	229202
#	239577
#
# Disc length: 3390 seconds
#
# Revision: 0
# Processed by: cddbd v1.5.2PL0 Copyright (c) Steve Scherf et al.
# Submitted via: CDex 1.86
#
DISCID=f90d3c12
DTITLE=Bob Everhart and Sheila Everhart - Old Time Praire - Country Music
DYEAR=1995
DGENRE=Country
TTITLE0=Rovin' Gambler
TTITLE1=Gotta Travel On
TTITLE2=Hard Times
TTITLE3=Wolverton Montain
TTITLE4=Down In The Valley
TTITLE5=Midnight Special
TTITLE6=Train Whistle Blues
TTITLE7=Wayfarin' Stranger
TTITLE8=Lonesome Road Blues
TTITLE9=Miller's Cave
TTITLE10=Wabash Cannonball
TTITLE11=Waitin' Far A Train
TTITLE12=Columbus Stockade Blues
TTITLE13=No One Comes Near
TTITLE14=Walkin' The Floor Over You - Sioux City Sue
TTITLE15=Goin' Down This Road
TTITLE16=Jambalaya
TTITLE17=Train
EXTD=YEAR: 1995
EXTT0=
EXTT1=
EXTT2=
EXTT3=
EXTT4=
EXTT5=
EXTT6=
EXTT7=
EXTT8=
EXTT9=
EXTT10=
EXTT11=
EXTT12=
EXTT13=
EXTT14=
EXTT15=
EXTT16=
EXTT17=
PLAYORDER=
